<svg width="486" height="128" viewBox="0 0 486 128" fill="none" xmlns="http://www.w3.org/2000/svg">
<path d="M484.128 35.1498C484.555 38.7149 483.426 42.4601 480.73 46.364C478.029 50.2748 473.791 54.2908 468.116 58.3442C456.767 66.4503 439.848 74.5842 418.572 82.2731C376.036 97.6453 316.298 111.163 249.449 119.164C182.6 127.165 121.36 128.127 76.3975 123.227C53.908 120.776 35.5472 116.865 22.6059 111.666C16.1347 109.066 11.0681 106.164 7.52082 103.001C3.97986 99.8434 1.99891 96.4704 1.57221 92.9054C1.14552 89.3403 2.27453 85.5951 4.97035 81.6912C7.67094 77.7804 11.9096 73.7644 17.5844 69.711C28.9333 61.6049 45.8525 53.471 67.1284 45.7821C109.665 30.4099 169.402 16.8918 236.251 8.89085C303.1 0.889938 364.34 -0.0713428 409.303 4.82837C431.792 7.27911 450.153 11.1905 463.095 16.3894C469.566 18.9891 474.632 21.8914 478.18 25.0544C481.721 28.2118 483.702 31.5848 484.128 35.1498Z" stroke="url(#paint0_linear_215_89)" stroke-width="2"/>
<defs>
<linearGradient id="paint0_linear_215_89" x1="495.083" y1="38.3315" x2="-35.2735" y2="88.2217" gradientUnits="userSpaceOnUse">
<stop stop-color="#4269F6"/>
<stop offset="1" stop-color="#D5F60C" stop-opacity="0"/>
</linearGradient>
</defs>
</svg>
